<?xml version="1.0" encoding="UTF-8" standalone="no"?>
<!-- Created with Inkscape (http://www.inkscape.org/) -->

<svg
   width="200"
   height="200"
   version="1.1"
   id="svg26"
   sodipodi:docname="Dflat.svg"
   inkscape:version="1.2.1 (9c6d41e410, 2022-07-14, custom)"
   xmlns:inkscape="http://www.inkscape.org/namespaces/inkscape"
   xmlns:sodipodi="http://sodipodi.sourceforge.net/DTD/sodipodi-0.dtd"
   xmlns="http://www.w3.org/2000/svg"
   xmlns:svg="http://www.w3.org/2000/svg">
  <defs
     id="defs30" />
  <sodipodi:namedview
     id="namedview28"
     pagecolor="#505050"
     bordercolor="#ffffff"
     borderopacity="1"
     inkscape:showpageshadow="0"
     inkscape:pageopacity="0"
     inkscape:pagecheckerboard="1"
     inkscape:deskcolor="#505050"
     showgrid="false"
     inkscape:zoom="1.18"
     inkscape:cx="100"
     inkscape:cy="100.42373"
     inkscape:current-layer="svg26" />
  <path
     d="m 0,52 200,0"
     style="fill:none;stroke:#000000;stroke-width:4;stroke-linecap:butt;stroke-linejoin:miter;stroke-miterlimit:4;stroke-opacity:0.25;stroke-dasharray:none"
     id="path2" />
  <path
     d="m 0,76 200,0"
     style="fill:none;stroke:#000000;stroke-width:4;stroke-linecap:butt;stroke-linejoin:miter;stroke-miterlimit:4;stroke-opacity:0.25;stroke-dasharray:none"
     id="path4" />
  <path
     d="m 0,100 200,0"
     style="fill:none;stroke:#000000;stroke-width:4;stroke-linecap:butt;stroke-linejoin:miter;stroke-miterlimit:4;stroke-opacity:0.25;stroke-dasharray:none"
     id="path6" />
  <path
     d="m 0,124 200,0"
     style="fill:none;stroke:#000000;stroke-width:4;stroke-linecap:butt;stroke-linejoin:miter;stroke-miterlimit:4;stroke-opacity:0.25;stroke-dasharray:none"
     id="path8" />
  <path
     d="m 0,148 200,0"
     style="fill:none;stroke:#000000;stroke-width:4;stroke-linecap:butt;stroke-linejoin:miter;stroke-miterlimit:4;stroke-opacity:0.25;stroke-dasharray:none"
     id="path10" />
  <path
     style="fill:#000000;fill-opacity:1;stroke:none"
     d="m 41.84,14.9 2,0 0,36.51 c 2.26,-1.34 5.69,-2.51 8.5,-2.51 5.35,0.06 8.56,3.59 8.5,7.95 0,5.54 -11.17,15.56 -19.01,21.56 0.67,-2.02 1.16,-4.04 2.01,-6.05 3.66,-3 7.82,-7.6 9.02,-10.96 0.48,-1.27 0.98,-3.12 0.97,-4.67 0,-1.32 -0.06,-2.66 -1.14,-3.69 -0.68,-0.61 -1.55,-1.14 -3.39,-1.13 -2.05,0 -4.39,1.8 -5.46,3.44 l -0.01,17.02 -2,6.06 z"
     id="path12" />
  <path
     style="fill:#000000;fill-opacity:1;stroke:none"
     d="m 17.87,52.99 2,0 0,36.51 c 2.26,-1.34 5.69,-2.51 8.5,-2.51 5.35,0.06 8.56,3.59 8.5,7.95 0,5.54 -11.17,15.56 -19.01,21.56 0.67,-2.02 1.16,-4.04 2.01,-6.05 3.66,-3 7.82,-7.6 9.02,-10.96 0.48,-1.27 0.98,-3.12 0.97,-4.67 0,-1.32 -0.06,-2.66 -1.14,-3.69 -0.68,-0.61 -1.55,-1.14 -3.39,-1.13 -2.05,0 -4.39,1.8 -5.46,3.44 l -0.01,17.02 -2,6.06 z"
     id="path14" />
  <path
     style="fill:#000000;fill-opacity:1;stroke:none"
     d="m 66,62.99 2,0 0,36.51 c 2.26,-1.34 5.69,-2.51 8.5,-2.51 5.35,0.06 8.56,3.59 8.5,7.95 0,5.54 -11.17,15.56 -19.01,21.56 0.67,-2.02 1.16,-4.04 2.01,-6.05 3.66,-3 7.82,-7.6 9.02,-10.96 0.48,-1.27 0.98,-3.12 0.97,-4.67 0,-1.32 -0.06,-2.66 -1.14,-3.69 -0.68,-0.61 -1.55,-1.14 -3.39,-1.13 -2.05,0 -4.39,1.8 -5.46,3.44 l -0.01,17.02 -2,6.06 z"
     id="path16" />
  <path
     style="fill:#000000;fill-opacity:1;stroke:none"
     d="m 90,28.99 2,0 0,36.51 c 2.26,-1.34 5.69,-2.51 8.5,-2.51 5.35,0.06 8.56,3.59 8.5,7.95 0,5.54 -11.17,15.56 -19.01,21.56 0.67,-2.02 1.16,-4.04 2.01,-6.05 3.66,-3 7.82,-7.6 9.02,-10.96 0.48,-1.27 0.98,-3.12 0.97,-4.67 0,-1.32 -0.06,-2.66 -1.14,-3.69 -0.68,-0.61 -1.55,-1.14 -3.39,-1.13 -2.05,0 -4.39,1.8 -5.46,3.44 l -0.01,17.02 -2,6.06 z"
     id="path18" />
  <path
     style="fill:#000000;fill-opacity:1;stroke:none"
     d="m 113.75,76.99 2,0 0,36.51 c 2.26,-1.34 5.69,-2.51 8.5,-2.51 5.35,0.06 8.56,3.59 8.5,7.95 0,5.54 -11.17,15.56 -19.01,21.56 0.67,-2.02 1.16,-4.04 2.01,-6.05 3.66,-3 7.82,-7.6 9.02,-10.96 0.48,-1.27 0.98,-3.12 0.97,-4.67 0,-1.32 -0.06,-2.66 -1.14,-3.69 -0.68,-0.61 -1.55,-1.14 -3.39,-1.13 -2.05,0 -4.39,1.8 -5.46,3.44 l -0.01,17.02 -2,6.06 z"
     id="path20" />
</svg>
