<?xml version="1.0" encoding="UTF-8" standalone="no"?>
<!-- Created with Inkscape (http://www.inkscape.org/) -->

<svg
   width="200"
   height="200"
   version="1.1"
   id="svg30"
   sodipodi:docname="Fsharp.svg"
   inkscape:version="1.2.1 (9c6d41e410, 2022-07-14, custom)"
   xmlns:inkscape="http://www.inkscape.org/namespaces/inkscape"
   xmlns:sodipodi="http://sodipodi.sourceforge.net/DTD/sodipodi-0.dtd"
   xmlns="http://www.w3.org/2000/svg"
   xmlns:svg="http://www.w3.org/2000/svg">
  <defs
     id="defs34" />
  <sodipodi:namedview
     id="namedview32"
     pagecolor="#505050"
     bordercolor="#ffffff"
     borderopacity="1"
     inkscape:showpageshadow="0"
     inkscape:pageopacity="0"
     inkscape:pagecheckerboard="1"
     inkscape:deskcolor="#505050"
     showgrid="false"
     inkscape:zoom="1.18"
     inkscape:cx="100"
     inkscape:cy="100.42373"
     inkscape:current-layer="g28" />
  <g
     style="fill:none;stroke:#000000;stroke-width:4;stroke-linecap:butt;stroke-linejoin:miter;stroke-miterlimit:4;stroke-opacity:0.25;stroke-dasharray:none"
     id="g12">
    <path
       d="m 0,52 200,0"
       id="path2" />
    <path
       d="m 0,76 200,0"
       id="path4" />
    <path
       d="m 0,100 200,0"
       id="path6" />
    <path
       d="m 0,124 200,0"
       id="path8" />
    <path
       d="m 0,148 200,0"
       id="path10" />
  </g>
  <g
     style="fill:#000000;fill-opacity:1;stroke:none"
     id="g28">
    <path
       d="m 17.7,47.6 0,-9.1 4.3,-1.3 0,-18.7 2,0 0,18.2 7,-2.1 0,-18.6 2,0 0,18 5,-1 0,9.5 -4.9,1.2 0,13.7 -2,0.6 0,-13.8 -7,1.6 0,13.7 9,-2 4.8,-1.1 0,10.2 -4.7,1.1 0,17.7 -2,0 0,-17 -7,1.3 0,18.8 -2,0 0,-18.2 -4.4,1.1 0,-9.9 4.3,-1.3 0,-13.7 z"
       id="path14" />
    <path
       d="m 65.8,35.6 0,-9.1 4.3,-1.3 0,-18.7 2,0 0,18.2 7,-2.1 0,-18.6 2,0 0,18 5,-1 0,9.5 -4.9,1.2 0,13.7 -2,0.6 0,-13.8 -7,1.6 0,13.7 9,-2 4.8,-1.1 0,10.2 -4.7,1.1 0,17.7 -2,0 0,-17 -7,1.3 0,18.8 -2,0 0,-18.2 -4.4,1.1 0,-9.9 4.3,-1.3 0,-13.7 z"
       id="path16" />
    <path
       d="m 41.7,83.6 0,-9.1 4.3,-1.3 0,-18.7 2,0 0,18.2 7,-2.1 0,-18.6 2,0 0,18 5,-1 0,9.5 -4.9,1.2 0,13.7 -2,0.6 0,-13.8 -7,1.6 0,13.7 9,-2 4.8,-1.1 0,10.2 -4.7,1.1 0,17.7 -2,0 0,-17 -7,1.3 0,18.8 -2,0 0,-18.2 -4.4,1.1 0,-9.9 4.3,-1.3 0,-13.7 z"
       id="path18" />
    <path
       d="m 89.7,71.6 0,-9.1 4.3,-1.3 0,-18.7 2,0 0,18.2 7,-2.1 0,-18.6 2,0 0,18 5,-1 0,9.5 -4.9,1.2 0,13.7 -2,0.6 0,-13.8 -7,1.6 0,13.7 9,-2 4.8,-1.1 0,10.2 -4.7,1.1 0,17.7 -2,0 0,-17 -7,1.3 0,18.8 -2,0 0,-18.2 -4.4,1.1 0,-9.9 4.3,-1.3 0,-13.7 z"
       id="path20" />
    <path
       d="m 113.7,107.6 0,-9.1 4.3,-1.3 0,-18.7 2,0 0,18.2 7,-2.1 0,-18.6 2,0 0,18 5,-1 0,9.5 -4.9,1.2 0,13.7 -2,0.6 0,-13.8 -7,1.6 0,13.7 9,-2 4.8,-1.1 0,10.2 -4.7,1.1 0,17.7 -2,0 0,-17 -7,1.3 0,18.8 -2,0 0,-18.2 -4.4,1.1 0,-9.9 4.3,-1.3 0,-13.7 z"
       id="path22" />
    <path
       d="m 137.7,59.6 0,-9.1 4.3,-1.3 0,-18.7 2,0 0,18.2 7,-2.1 0,-18.6 2,0 0,18 5,-1 0,9.5 -4.9,1.2 0,13.7 -2,0.6 0,-13.8 -7,1.6 0,13.7 9,-2 4.8,-1.1 0,10.2 -4.7,1.1 0,17.7 -2,0 0,-17 -7,1.3 0,18.8 -2,0 0,-18.2 -4.4,1.1 0,-9.9 4.3,-1.3 0,-13.7 z"
       id="path24" />
  </g>
</svg>
