<?xml version="1.0" encoding="UTF-8" standalone="no"?>
<!-- Created with Inkscape (http://www.inkscape.org/) -->
<!DOCTYPE svg PUBLIC "-//W3C//DTD SVG 1.1//EN" "http://www.w3.org/Graphics/SVG/1.1/DTD/svg11.dtd">
<svg xmlns="http://www.w3.org/2000/svg" width="200" height="200">
  <g style="fill:none;stroke:#000000;stroke-width:4;stroke-linecap:butt;stroke-linejoin:miter;stroke-miterlimit:4;stroke-opacity:0.25;stroke-dasharray:none">
    <path d="m 0,52 200,0"/>
    <path d="m 0,76 200,0"/>
    <path d="m 0,100 200,0"/>
    <path d="m 0,124 200,0"/>
    <path d="m 0,148 200,0"/>
  </g>
  <g style="fill:#000000;fill-opacity:1;stroke:none">
    <path d="m 17.7,47.6 0,-9.1 4.3,-1.3 0,-18.7 2,0 0,18.2 7,-2.1 0,-18.6 2,0 0,18 5,-1 0,9.5 -4.9,1.2 0,13.7 -2,0.6 0,-13.8 -7,1.6 0,13.7 9,-2 4.8,-1.1 0,10.2 -4.7,1.1 0,17.7 -2,0 0,-17 -7,1.3 0,18.8 -2,0 0,-18.2 -4.4,1.1 0,-9.9 4.3,-1.3 0,-13.7 z"/>
    <path d="m 65.8,35.6 0,-9.1 4.3,-1.3 0,-18.7 2,0 0,18.2 7,-2.1 0,-18.6 2,0 0,18 5,-1 0,9.5 -4.9,1.2 0,13.7 -2,0.6 0,-13.8 -7,1.6 0,13.7 9,-2 4.8,-1.1 0,10.2 -4.7,1.1 0,17.7 -2,0 0,-17 -7,1.3 0,18.8 -2,0 0,-18.2 -4.4,1.1 0,-9.9 4.3,-1.3 0,-13.7 z"/>
    <path d="m 41.7,83.6 0,-9.1 4.3,-1.3 0,-18.7 2,0 0,18.2 7,-2.1 0,-18.6 2,0 0,18 5,-1 0,9.5 -4.9,1.2 0,13.7 -2,0.6 0,-13.8 -7,1.6 0,13.7 9,-2 4.8,-1.1 0,10.2 -4.7,1.1 0,17.7 -2,0 0,-17 -7,1.3 0,18.8 -2,0 0,-18.2 -4.4,1.1 0,-9.9 4.3,-1.3 0,-13.7 z"/>
    <path d="m 89.7,71.6 0,-9.1 4.3,-1.3 0,-18.7 2,0 0,18.2 7,-2.1 0,-18.6 2,0 0,18 5,-1 0,9.5 -4.9,1.2 0,13.7 -2,0.6 0,-13.8 -7,1.6 0,13.7 9,-2 4.8,-1.1 0,10.2 -4.7,1.1 0,17.7 -2,0 0,-17 -7,1.3 0,18.8 -2,0 0,-18.2 -4.4,1.1 0,-9.9 4.3,-1.3 0,-13.7 z"/>
    <path d="m 113.7,107.6 0,-9.1 4.3,-1.3 0,-18.7 2,0 0,18.2 7,-2.1 0,-18.6 2,0 0,18 5,-1 0,9.5 -4.9,1.2 0,13.7 -2,0.6 0,-13.8 -7,1.6 0,13.7 9,-2 4.8,-1.1 0,10.2 -4.7,1.1 0,17.7 -2,0 0,-17 -7,1.3 0,18.8 -2,0 0,-18.2 -4.4,1.1 0,-9.9 4.3,-1.3 0,-13.7 z"/>
    <path d="m 137.7,59.6 0,-9.1 4.3,-1.3 0,-18.7 2,0 0,18.2 7,-2.1 0,-18.6 2,0 0,18 5,-1 0,9.5 -4.9,1.2 0,13.7 -2,0.6 0,-13.8 -7,1.6 0,13.7 9,-2 4.8,-1.1 0,10.2 -4.7,1.1 0,17.7 -2,0 0,-17 -7,1.3 0,18.8 -2,0 0,-18.2 -4.4,1.1 0,-9.9 4.3,-1.3 0,-13.7 z"/>
    <path d="m 161.7,95.6 0,-9.1 4.3,-1.3 0,-18.7 2,0 0,18.2 7,-2.1 0,-18.6 2,0 0,18 5,-1 0,9.5 -4.9,1.2 0,13.7 -2,0.6 0,-13.8 -7,1.6 0,13.7 9,-2 4.8,-1.1 0,10.2 -4.7,1.1 0,17.7 -2,0 0,-17 -7,1.3 0,18.8 -2,0 0,-18.2 -4.4,1.1 0,-9.9 4.3,-1.3 0,-13.7 z"/>
  </g>
</svg>