<?xml version="1.0" encoding="UTF-8" standalone="no"?>
<!-- Created with Inkscape (http://www.inkscape.org/) -->
<!DOCTYPE svg PUBLIC "-//W3C//DTD SVG 1.1//EN" "http://www.w3.org/Graphics/SVG/1.1/DTD/svg11.dtd">
<svg xmlns="http://www.w3.org/2000/svg" width="200" height="200">
    <path d="m 0,52 200,0" style="fill:none;stroke:#000000;stroke-width:4;stroke-linecap:butt;stroke-linejoin:miter;stroke-miterlimit:4;stroke-opacity:0.25;stroke-dasharray:none"/>
    <path d="m 0,76 200,0" style="fill:none;stroke:#000000;stroke-width:4;stroke-linecap:butt;stroke-linejoin:miter;stroke-miterlimit:4;stroke-opacity:0.25;stroke-dasharray:none"/>
    <path d="m 0,100 200,0" style="fill:none;stroke:#000000;stroke-width:4;stroke-linecap:butt;stroke-linejoin:miter;stroke-miterlimit:4;stroke-opacity:0.25;stroke-dasharray:none"/>
    <path d="m 0,124 200,0" style="fill:none;stroke:#000000;stroke-width:4;stroke-linecap:butt;stroke-linejoin:miter;stroke-miterlimit:4;stroke-opacity:0.25;stroke-dasharray:none"/>
    <path d="m 0,148 200,0" style="fill:none;stroke:#000000;stroke-width:4;stroke-linecap:butt;stroke-linejoin:miter;stroke-miterlimit:4;stroke-opacity:0.25;stroke-dasharray:none"/>
  <path style="fill:#000000;fill-opacity:1;stroke:none" d="m 41.84,14.9 2,0 0,36.51 c 2.26,-1.34 5.69,-2.51 8.5,-2.51 5.35,0.06 8.56,3.59 8.5,7.95 0,5.54 -11.17,15.56 -19.01,21.56 0.67,-2.02 1.16,-4.04 2.01,-6.05 3.66,-3 7.82,-7.6 9.02,-10.96 0.48,-1.27 0.98,-3.12 0.97,-4.67 0,-1.32 -0.06,-2.66 -1.14,-3.69 -0.68,-0.61 -1.55,-1.14 -3.39,-1.13 -2.05,0 -4.39,1.8 -5.46,3.44 l -0.01,17.02 -2,6.06 z"/>
  <path style="fill:#000000;fill-opacity:1;stroke:none" d="m 17.87,52.99 2,0 0,36.51 c 2.26,-1.34 5.69,-2.51 8.5,-2.51 5.35,0.06 8.56,3.59 8.5,7.95 0,5.54 -11.17,15.56 -19.01,21.56 0.67,-2.02 1.16,-4.04 2.01,-6.05 3.66,-3 7.82,-7.6 9.02,-10.96 0.48,-1.27 0.98,-3.12 0.97,-4.67 0,-1.32 -0.06,-2.66 -1.14,-3.69 -0.68,-0.61 -1.55,-1.14 -3.39,-1.13 -2.05,0 -4.39,1.8 -5.46,3.44 l -0.01,17.02 -2,6.06 z"/>
  <path style="fill:#000000;fill-opacity:1;stroke:none" d="m 66,62.99 2,0 0,36.51 c 2.26,-1.34 5.69,-2.51 8.5,-2.51 5.35,0.06 8.56,3.59 8.5,7.95 0,5.54 -11.17,15.56 -19.01,21.56 0.67,-2.02 1.16,-4.04 2.01,-6.05 3.66,-3 7.82,-7.6 9.02,-10.96 0.48,-1.27 0.98,-3.12 0.97,-4.67 0,-1.32 -0.06,-2.66 -1.14,-3.69 -0.68,-0.61 -1.55,-1.14 -3.39,-1.13 -2.05,0 -4.39,1.8 -5.46,3.44 l -0.01,17.02 -2,6.06 z"/>
  <path style="fill:#000000;fill-opacity:1;stroke:none" d="m 90,28.99 2,0 0,36.51 c 2.26,-1.34 5.69,-2.51 8.5,-2.51 5.35,0.06 8.56,3.59 8.5,7.95 0,5.54 -11.17,15.56 -19.01,21.56 0.67,-2.02 1.16,-4.04 2.01,-6.05 3.66,-3 7.82,-7.6 9.02,-10.96 0.48,-1.27 0.98,-3.12 0.97,-4.67 0,-1.32 -0.06,-2.66 -1.14,-3.69 -0.68,-0.61 -1.55,-1.14 -3.39,-1.13 -2.05,0 -4.39,1.8 -5.46,3.44 l -0.01,17.02 -2,6.06 z"/>
  <path style="fill:#000000;fill-opacity:1;stroke:none" d="m 113.75,76.99 2,0 0,36.51 c 2.26,-1.34 5.69,-2.51 8.5,-2.51 5.35,0.06 8.56,3.59 8.5,7.95 0,5.54 -11.17,15.56 -19.01,21.56 0.67,-2.02 1.16,-4.04 2.01,-6.05 3.66,-3 7.82,-7.6 9.02,-10.96 0.48,-1.27 0.98,-3.12 0.97,-4.67 0,-1.32 -0.06,-2.66 -1.14,-3.69 -0.68,-0.61 -1.55,-1.14 -3.39,-1.13 -2.05,0 -4.39,1.8 -5.46,3.44 l -0.01,17.02 -2,6.06 z"/>
  <path style="fill:#000000;fill-opacity:1;stroke:none" d="m 138,38.74 2,0 0,36.51 c 2.26,-1.34 5.69,-2.51 8.5,-2.51 5.35,0.06 8.56,3.59 8.5,7.95 0,5.54 -11.17,15.56 -19.01,21.56 0.67,-2.02 1.16,-4.04 2.01,-6.05 3.66,-3 7.82,-7.6 9.02,-10.96 0.48,-1.27 0.98,-3.12 0.97,-4.67 0,-1.32 -0.06,-2.66 -1.14,-3.69 -0.68,-0.61 -1.55,-1.14 -3.39,-1.13 -2.05,0 -4.39,1.8 -5.46,3.44 l -0.01,17.02 -2,6.06 z"/>
  <path style="fill:#000000;fill-opacity:1;stroke:none" d="m 161.97,87.28 2,0 0,36.51 c 2.26,-1.34 5.69,-2.51 8.5,-2.51 5.35,0.06 8.56,3.59 8.5,7.95 0,5.54 -11.17,15.56 -19.01,21.56 0.67,-2.02 1.16,-4.04 2.01,-6.05 3.66,-3 7.82,-7.6 9.02,-10.96 0.48,-1.27 0.98,-3.12 0.97,-4.67 0,-1.32 -0.06,-2.66 -1.14,-3.69 -0.68,-0.61 -1.55,-1.14 -3.39,-1.13 -2.05,0 -4.39,1.8 -5.46,3.44 l -0.01,17.02 -2,6.06 z"/>
</svg>