<?xml version="1.0" encoding="UTF-8" standalone="no"?>
<!-- Generator: Adobe Illustrator 22.1.0, SVG Export Plug-In . SVG Version: 6.00 Build 0)  -->

<svg
   xmlns:dc="http://purl.org/dc/elements/1.1/"
   xmlns:cc="http://creativecommons.org/ns#"
   xmlns:rdf="http://www.w3.org/1999/02/22-rdf-syntax-ns#"
   xmlns:svg="http://www.w3.org/2000/svg"
   xmlns="http://www.w3.org/2000/svg"
   xmlns:sodipodi="http://sodipodi.sourceforge.net/DTD/sodipodi-0.dtd"
   xmlns:inkscape="http://www.inkscape.org/namespaces/inkscape"
   version="1.1"
   id="SDA_Logo"
   x="0px"
   y="0px"
   viewBox="0 0 439.6 820.00002"
   xml:space="preserve"
   sodipodi:docname="nav-logo.svg"
   width="439.60001"
   height="820"
   inkscape:version="0.92.4 5da689c313, 2019-01-14"><metadata
   id="metadata31"><rdf:RDF><cc:Work
       rdf:about=""><dc:format>image/svg+xml</dc:format><dc:type
         rdf:resource="http://purl.org/dc/dcmitype/StillImage" /><dc:title></dc:title></cc:Work></rdf:RDF></metadata><defs
   id="defs29" /><sodipodi:namedview
   pagecolor="#ffffff"
   bordercolor="#666666"
   borderopacity="1"
   objecttolerance="10"
   gridtolerance="10"
   guidetolerance="10"
   inkscape:pageopacity="0"
   inkscape:pageshadow="2"
   inkscape:window-width="1280"
   inkscape:window-height="750"
   id="namedview27"
   showgrid="true"
   units="px"
   inkscape:zoom="5.1040824"
   inkscape:cx="445.77219"
   inkscape:cy="3.9811331"
   inkscape:window-x="0"
   inkscape:window-y="0"
   inkscape:window-maximized="1"
   inkscape:current-layer="layer1"
   inkscape:snap-page="true"
   fit-margin-top="0"
   fit-margin-left="0"
   fit-margin-right="0"
   fit-margin-bottom="0"><inkscape:grid
     type="xygrid"
     id="grid837"
     originx="-0.4"
     originy="-60.00002" /></sodipodi:namedview>
<style
   type="text/css"
   id="style2">
	.st0{fill:#FF8200;}
	.st1{fill:#FFFFFF;}
	.st2{display:none;fill:#FFFFFF;}
	.st3{fill:#434244;}
</style>





<g
   inkscape:groupmode="layer"
   id="layer1"
   inkscape:label="Layer 1"
   style="display:inline"
   transform="translate(-0.40000001,1.8990533e-5)"><rect
     id="Grey_Box"
     x="0.40000001"
     y="-1.8990533e-05"
     class="st3"
     width="439.60001"
     height="820"
     style="fill:#434244;stroke-width:1" /><g
     id="g14"
     transform="translate(-0.3999939,1.1)">
	<rect
   id="Orange_Box"
   x="0.40000001"
   y="-1.1"
   class="st0"
   width="440"
   height="440"
   style="fill:#ff8200" />
	<g
   id="SDA_Flame">
		<path
   class="st1"
   d="m 251.2,224.5 c -13.3,13.3 -19.7,19.5 -22.9,35.6 -0.2,1.2 -1.6,1.2 -1.6,0 v -19.7 c 0,-12.7 11.3,-24.2 24.6,-37.4 L 262,192.3 c 15.1,-15.1 18.7,-32.6 6.6,-42.9 -1,-0.8 -0.4,-2 0.8,-1.4 14.9,6.8 26.8,31.6 1.2,57.2 z M 226.6,275 v 19.7 c 0,1.2 1.4,1.2 1.6,0 3.2,-16.1 9.7,-22.5 22.9,-35.6 L 272,238.2 c 25.6,-25.6 30,-50.3 17.1,-66.2 -0.8,-1 -1.8,-0.4 -1.2,0.8 8.7,19.5 -12.1,40.1 -21.9,49.9 l -14.9,14.9 c -13.2,13.3 -24.5,24.8 -24.5,37.4 m -56.8,-63.6 c -25.6,25.6 -13.9,50.3 1,57.2 1.4,0.6 1.8,-0.4 0.8,-1.4 -12.1,-10.5 -8.3,-27.8 6.6,-42.9 l 42.5,-42.7 c 13.3,-13.3 24.6,-25 24.6,-37.4 v -19.7 c 0,-1.2 -1.4,-1.2 -1.6,0 -3.2,16.1 -9.7,22.3 -22.9,35.6 z M 245.7,109.6 V 89.9 c 0,-1.2 -1.4,-1.2 -1.6,0 -3.2,16.1 -9.7,22.5 -22.9,35.6 l -52.7,52.7 c -25.6,25.6 -30,50.3 -17.1,66.4 0.8,1 1.8,0.4 1.2,-0.8 -8.7,-19.5 12.1,-40.1 21.9,-49.9 l 46.7,-46.7 c 13.2,-13.5 24.5,-24.9 24.5,-37.6 m -82.9,39.6 c -21.9,21.9 -25.2,45.3 -20.3,60.6 0.4,1.2 1.6,1.4 1.4,0 -0.2,-12.7 3.6,-23.8 27,-47.1 l 50.3,-50.3 C 234.5,99.1 245.8,87.4 245.8,75 V 55.2 c 0,-1.2 -1.4,-1.2 -1.6,0 -3.2,16.1 -9.7,22.3 -22.9,35.6 z m 30.8,159.7 c -0.4,0 -0.8,-0.4 -0.8,-0.8 v -11.5 c 0,-0.4 0.4,-0.8 0.8,-0.8 h 19.3 c 0.4,0 0.8,-0.4 0.8,-0.8 0,-10.3 -7.8,-17.1 -38.6,-11.9 l -66.8,11.5 c 0,0 -50.9,50.9 -51.3,51.3 -0.6,0.8 -0.2,1.8 1,1.8 1,0 111.1,-19.1 111.1,-19.1 25.4,-4.2 39,7.8 43.3,19.1 0.4,1 1.6,0.8 1.6,-0.2 v -38 c 0,-0.4 -0.4,-0.8 -0.8,-0.8 h -19.5 v 0.2 z m 79.7,-24.4 -22.1,22.1 c -13.3,13.3 -24.6,25 -24.6,37.4 v 3.4 c 0,1 1.2,1 1.6,0.2 4.2,-11.3 17.9,-23.3 43.3,-19.1 0,0 110.3,19.1 111.1,19.1 1,0 1.6,-1 1,-1.8 -0.4,-0.4 -51.3,-51.3 -51.3,-51.3 z M 298,206.6 c -0.4,-1.2 -1.6,-1.4 -1.4,0 0.2,12.7 -3.6,23.8 -27,47.1 l -18.5,18.5 c -8.5,8.5 -15.9,16.1 -20.3,23.8 h 18.1 c 0.8,-0.8 1.4,-1.4 2.2,-2.2 l 26.4,-26.6 c 22.2,-22.1 25.2,-45.5 20.5,-60.6 m -71.4,122.6 c 0,1.2 1.4,1.2 1.6,0 1.8,-8.9 4.6,-14.7 8.9,-20.5 h -9.7 c -0.4,0 -0.8,0.4 -0.8,0.8 z"
   id="path5"
   inkscape:connector-curvature="0"
   style="fill:#ffffff" />
		<path
   id="_xA9_"
   class="st2"
   d="m 370.1,310.3 c 1,0 1.8,-0.6 1.8,-1.6 0,-1 -0.6,-1.4 -1.8,-1.4 h -1 v 3 z m -2.6,-4.5 h 2.6 c 2.4,0 3.4,1 3.4,2.8 0,1.2 -0.8,2 -1.6,2.4 l 2.4,4 h -1.8 l -2.2,-3.6 h -1.2 v 3.6 h -1.6 z m 9.5,4.7 c 0,-3.6 -2.6,-6.6 -6.6,-6.6 -3.8,0 -6.6,2.8 -6.6,6.6 0,3.6 2.6,6.6 6.6,6.6 3.5,0 6.6,-2.6 6.6,-6.6 m -14.3,0 c 0,-4.6 3.2,-7.8 7.8,-7.8 4.4,0 7.8,3.2 7.8,7.8 0,4.4 -3.2,7.8 -7.8,7.8 -4.8,0 -7.8,-3.2 -7.8,-7.8"
   inkscape:connector-curvature="0"
   style="display:none;fill:#ffffff" />
		<g
   id="TM">
			<polygon
   class="st1"
   points="375.1,304.8 375.1,306.2 372.1,306.2 372.1,314.7 370.3,314.7 370.3,306.2 367.3,306.2 367.3,304.8 "
   id="polygon8"
   style="fill:#ffffff" />
			<polygon
   class="st1"
   points="382.2,314.7 380.8,314.7 378,307.1 377.8,307.1 377.8,308.9 377.8,314.7 376.1,314.7 376.1,304.8 378.6,304.8 381.6,312.7 384.4,304.8 387,304.8 387,314.7 385.2,314.7 385.2,309.1 385.2,307.1 385,307.1 "
   id="polygon10"
   style="fill:#ffffff" />
		</g>
	</g>
</g></g>









<g
   inkscape:groupmode="layer"
   id="layer2"
   inkscape:label="Layer 2"
   style="display:inline"
   transform="translate(-0.40000001,1.8990533e-5)" />
<g
   aria-label="Moree"
   style="font-style:normal;font-variant:normal;font-weight:800;font-stretch:normal;font-size:216.78675842px;line-height:1.25;font-family:Exo;-inkscape-font-specification:'Exo Ultra-Bold';text-align:center;letter-spacing:0px;word-spacing:0px;text-anchor:middle;fill:#ffffff;fill-opacity:1;stroke:none;stroke-width:1"
   id="text833-3-7-3-6"
   transform="translate(-0.40000001,1.8990533e-5)"><path
     d="m 41.794378,764.29951 c 7.804323,-2.60144 22.762609,-11.27291 44.658072,-39.67197 28.83264,-37.28733 40.75591,-64.38567 40.75591,-64.38567 0,0 -18.86045,61.56744 -19.51081,70.23891 -0.21678,3.03501 4.9861,7.37075 9.10505,3.68537 4.11894,-3.68537 13.22399,-12.79042 30.56693,-33.81873 13.0072,-15.82543 25.58084,-32.08444 26.88156,-33.60195 -1.30072,2.16787 -21.24511,34.68588 -23.41297,52.67918 -1.95108,14.95829 7.15396,14.30793 13.44078,11.92328 6.5036,-2.38466 29.26621,-14.95829 35.76981,-26.88156 1.7343,-3.03502 -0.86715,-4.33574 -3.03501,-0.86715 -4.9861,7.80432 -35.55303,26.01441 -38.37126,23.84654 -3.2518,-2.38465 -2.38465,-11.05612 6.07003,-29.483 13.44078,-29.26621 22.9794,-43.35735 25.58084,-45.52522 2.60144,-2.16786 -2.16787,-10.40576 -6.28682,-5.63645 -4.11895,4.76931 -64.81924,80.86146 -68.50461,80.2111 -3.68538,-0.65036 21.02831,-75.87537 23.62975,-79.99431 2.60144,-4.11895 -4.55252,-9.32183 -8.02111,-4.11895 -3.46859,5.20288 -26.44798,51.81203 -53.112754,82.59575 -28.182278,32.51802 -34.469094,31.86766 -34.469094,31.86766 0,0 -2.384654,-3.25181 -4.986096,-1.51751 -2.601441,1.73429 -4.552521,11.05612 3.251802,8.45468 z"
     style="font-style:normal;font-variant:normal;font-weight:bold;font-stretch:normal;font-family:'Eye Catching SPD';-inkscape-font-specification:'Eye Catching SPD Bold';fill:#ffffff;stroke-width:1"
     id="path834"
     inkscape:connector-curvature="0" /><path
     d="m 213.15754,695.14454 c 1.73429,-0.65036 0,-5.63646 -6.28682,-3.2518 -6.93718,3.90216 -13.22399,16.47579 -11.70648,24.4969 1.08393,5.41967 4.33573,10.18898 8.45468,10.18898 1.95108,0 5.41967,-0.43358 8.45468,-2.16787 3.2518,-1.7343 11.05613,-9.75541 13.65757,-13.00721 1.73429,0.43358 6.5036,1.08394 8.67147,0.65036 10.18898,-1.95108 13.0072,-3.90216 15.60865,-6.28681 1.73429,-1.95108 0.43357,-4.9861 -1.95109,-3.68538 -2.60144,1.95108 -4.7693,4.11895 -11.27291,5.41967 -4.55252,0.86715 -6.07003,0.21679 -7.80432,0.21679 6.72039,-7.37075 7.37075,-10.62255 8.02111,-15.82543 0.43357,-4.33574 -2.60144,-7.80433 -8.2379,-6.28682 -6.93717,1.73429 -9.7554,9.32183 -9.53861,14.95829 0.21678,3.2518 1.73429,6.5036 2.81822,8.02111 -2.81822,3.2518 -9.10504,10.18897 -11.48969,11.48969 -5.63646,3.2518 -10.40577,0 -11.05613,-3.68537 -0.65036,-4.11895 0.86715,-10.18898 3.68538,-14.30793 3.2518,-4.98609 6.72039,-5.41967 9.97219,-6.93717 z m 13.65756,7.80432 c -1.08393,1.73429 -1.30072,1.51751 -2.38465,2.60144 -0.43358,-0.65036 -1.08394,-3.03501 -1.08394,-4.33573 -0.43357,-5.63646 2.16787,-8.67147 5.20289,-10.62256 1.95108,-1.30072 3.68537,-0.65036 3.2518,1.95109 -0.65036,4.33573 -0.65036,4.11894 -4.9861,10.40576 z"
     style="font-style:normal;font-variant:normal;font-weight:bold;font-stretch:normal;font-family:'Eye Catching SPD';-inkscape-font-specification:'Eye Catching SPD Bold';fill:#ffffff;stroke-width:1"
     id="path836"
     inkscape:connector-curvature="0" /><path
     d="m 268.49914,695.57811 c -11.27291,5.85324 -17.9933,13.65757 -17.9933,13.65757 0,0 6.28681,-11.92328 8.88825,-16.25901 1.95109,-3.68538 -3.46858,-4.9861 -4.11894,-3.68538 -1.30072,1.7343 -4.55253,9.10505 -7.58754,14.7415 -2.38465,4.55253 -8.02111,13.87436 -9.10504,17.55973 -1.51751,5.41967 4.98609,3.46859 5.63645,2.16787 1.30072,-1.95108 3.46859,-8.45469 18.64366,-19.07724 13.87436,-9.97219 21.67868,-8.67147 23.62976,-6.72039 2.38465,2.38466 5.85324,-1.95108 3.68537,-4.98609 -0.86714,-1.30072 -3.2518,-2.16787 -6.28681,-2.16787 -4.11895,0 -9.53862,1.7343 -15.39186,4.76931 z"
     style="font-style:normal;font-variant:normal;font-weight:bold;font-stretch:normal;font-family:'Eye Catching SPD';-inkscape-font-specification:'Eye Catching SPD Bold';fill:#ffffff;stroke-width:1"
     id="path838"
     inkscape:connector-curvature="0" /><path
     d="m 337.77604,701.64814 c -4.55252,5.41967 -23.41296,17.77651 -31.65086,18.21009 -3.2518,0.21678 -6.93718,0.65036 -6.93718,-4.9861 0.65036,-5.20288 1.95108,-5.63645 2.60144,-7.58754 1.7343,1.95109 8.45469,0.65037 13.00721,-1.95108 7.80432,-4.7693 13.87435,-17.12615 7.80432,-19.29402 -3.90216,-1.30072 -8.67147,-0.86714 -14.7415,4.55252 -7.37075,6.50361 -12.14006,14.7415 -13.44078,24.28012 -1.08393,8.67147 7.37075,11.05613 14.09114,9.32183 10.83934,-2.60144 27.96549,-14.30792 31.65087,-20.16117 0.65036,-1.73429 -0.21679,-4.76931 -2.38466,-2.38465 z m -28.61585,-5.63646 c 3.68538,-3.46858 9.75541,-7.37075 10.83934,-5.63645 1.51751,2.38465 -2.81823,7.58753 -7.15396,10.62255 -3.2518,2.38465 -6.72039,2.60144 -8.02111,0.65036 1.95108,-3.03502 2.16787,-3.68538 4.33573,-5.63646 z"
     style="font-style:normal;font-variant:normal;font-weight:bold;font-stretch:normal;font-family:'Eye Catching SPD';-inkscape-font-specification:'Eye Catching SPD Bold';fill:#ffffff;stroke-width:1"
     id="path840"
     inkscape:connector-curvature="0" /><path
     d="m 377.15333,701.64814 c -4.55252,5.41967 -23.41297,17.77651 -31.65086,18.21009 -3.2518,0.21678 -6.93718,0.65036 -6.93718,-4.9861 0.65036,-5.20288 1.95108,-5.63645 2.60144,-7.58754 1.7343,1.95109 8.45469,0.65037 13.00721,-1.95108 7.80432,-4.7693 13.87435,-17.12615 7.80432,-19.29402 -3.90216,-1.30072 -8.67147,-0.86714 -14.7415,4.55252 -7.37075,6.50361 -12.14006,14.7415 -13.44078,24.28012 -1.08393,8.67147 7.37075,11.05613 14.09114,9.32183 10.83934,-2.60144 27.96549,-14.30792 31.65087,-20.16117 0.65036,-1.73429 -0.21679,-4.76931 -2.38466,-2.38465 z m -28.61585,-5.63646 c 3.68538,-3.46858 9.75541,-7.37075 10.83934,-5.63645 1.51751,2.38465 -2.81823,7.58753 -7.15396,10.62255 -3.2518,2.38465 -6.72039,2.60144 -8.02111,0.65036 1.95108,-3.03502 2.16786,-3.68538 4.33573,-5.63646 z"
     style="font-style:normal;font-variant:normal;font-weight:bold;font-stretch:normal;font-family:'Eye Catching SPD';-inkscape-font-specification:'Eye Catching SPD Bold';fill:#ffffff;stroke-width:1"
     id="path842"
     inkscape:connector-curvature="0" /></g>




<g
   transform="translate(-1.75,1.0999999)"
   style="display:inline"
   id="Seventh-Day_Adventist"><path
     d="m 57.5,567.2 h 4.6 L 48.2,531.4 h -4 l -13.9,35.8 h 4.5 l 4.2,-11 h 14.2 z m -5.6,-15 H 40.5 l 4,-10.8 c 0.4,-1.1 1.1,-3.3 1.5,-5.3 0.3,1.2 1.4,4.5 1.7,5.3 z M 75,567.8 c 4.2,0 6.7,-1.8 8.3,-4.1 h 0.2 l 0.6,3.6 h 3.6 v -37.9 l -4.4,1.7 v 9 c 0,1 0.2,3.1 0.3,4 h -0.3 c -1.6,-2.2 -4.1,-4 -8.3,-4 -6.6,0 -11,4.8 -11,13.9 0,9.1 4.4,13.8 11,13.8 m 0.7,-3.7 c -4.8,0 -7.1,-3.7 -7.1,-10.1 0,-6.3 2.3,-10.4 7.1,-10.4 5.9,0 7.8,3.7 7.8,10.4 v 0.8 c -0.2,6.2 -2.2,9.3 -7.8,9.3 m 25.4,3.1 h 5 l 10.2,-26.8 h -4.6 l -5.7,15.8 c -0.7,2.2 -1.9,5.4 -2.3,7.1 h -0.2 c -0.3,-1.6 -1.4,-4.9 -2.2,-7.1 L 95.6,540.4 H 91 Z m 28.3,-27.3 c -7.1,0 -11.8,5.3 -11.8,14.1 0,8.9 5.3,13.7 12.9,13.7 3.6,0 6.1,-0.6 8.8,-1.8 l -1.2,-3.3 c -2.1,0.8 -4.8,1.3 -7.4,1.3 -5.3,0 -8.4,-3.2 -8.6,-9.3 h 18.4 v -2.7 c 0,-7.1 -4.3,-12 -11.1,-12 m 0,3.7 c 4.4,0 6.5,3.1 6.5,7.6 h -13.6 c 0.4,-4.8 2.9,-7.6 7.1,-7.6 m 29.3,-3.7 c -3.4,0 -6.7,1.4 -8.4,4.1 H 150 l -0.6,-3.6 h -3.6 v 26.8 h 4.4 v -13.9 c 0,-6.2 1.9,-9.7 7.8,-9.7 4.1,0 6,2.2 6,6.5 v 17.2 h 4.4 v -17.4 c -0.1,-7 -3.4,-10 -9.7,-10 m 24.1,24.2 c -2.4,0 -4.2,-1.5 -4.2,-4.8 v -15.5 h 7.8 v -3.4 h -7.8 v -6.1 l -4.4,1.6 v 23.5 c 0,6.5 3.6,8.3 7.8,8.3 2,0 4,-0.5 4.9,-1.1 l -1.2,-3.2 c -0.6,0.4 -2,0.7 -2.9,0.7 m 9.8,-33.7 c -1.5,0 -2.6,0.9 -2.6,2.8 0,1.9 1.1,2.8 2.6,2.8 1.4,0 2.5,-0.9 2.5,-2.8 0,-1.9 -1.2,-2.8 -2.5,-2.8 m 2.1,10.1 h -4.4 v 26.8 h 4.4 z m 24.5,19.3 c 0,-4.3 -2.9,-6.1 -8,-7.9 -5.2,-1.9 -6.9,-2.8 -6.9,-5.1 0,-2 1.9,-3.2 5.6,-3.2 2.6,0 5.2,0.7 7.5,1.8 l 1.4,-3.6 c -2.5,-1.1 -5.3,-1.8 -8.6,-1.8 -6,0 -10,2.6 -10,7.1 0,4.4 3.1,6 8.3,8 5.3,2 6.6,3.2 6.6,5.2 0,2.4 -1.9,4 -6.3,4 -2.5,0 -5.4,-0.8 -7.2,-1.5 l -1.3,3.4 c 2,1.1 4.6,1.7 8.4,1.7 6.3,-0.1 10.5,-2.9 10.5,-8.1 m 12.4,4.3 c -2.4,0 -4.2,-1.5 -4.2,-4.8 v -15.5 h 7.8 v -3.4 h -7.8 v -6.1 l -4.4,1.6 v 23.5 c 0,6.5 3.6,8.3 7.8,8.3 2,0 4,-0.5 4.9,-1.1 l -1.2,-3.2 c -0.5,0.4 -1.9,0.7 -2.9,0.7 m 35,-29.1 c 3.2,0 5.9,1 8.1,1.9 l 1.5,-4 c -2.7,-1.4 -5.9,-1.9 -9.5,-1.9 -11,0 -17.2,7.5 -17.2,18.3 0,11.2 5.4,18.4 16.3,18.4 4.5,0 7.1,-0.5 11.2,-2.3 l -1.3,-3.5 c -2.3,1.1 -6.1,1.8 -9.2,1.8 -8.2,0 -12.3,-5.6 -12.3,-14.4 0.1,-8.8 4.8,-14.3 12.4,-14.3 m 18.6,-5.7 -4.4,1.6 v 36.3 h 4.4 v -13.8 c 0,-6.2 1.9,-9.7 7.8,-9.7 4.1,0 6,2.2 6,6.5 v 17.2 h 4.4 V 550 c 0,-6.9 -3.3,-9.8 -9.8,-9.8 -3.5,0 -6.6,1.4 -8.3,4.1 H 285 c 0.2,-1.1 0.2,-2.4 0.2,-3.7 z m 47.3,11.2 h -4.4 v 13.9 c 0,6.2 -1.9,9.7 -7.9,9.7 -4,0 -5.9,-2.1 -5.9,-6.4 v -17.2 h -4.4 v 17.6 c 0,6.8 3.3,9.7 9.7,9.7 3.5,0 6.7,-1.2 8.5,-4 h 0.2 l 0.6,3.6 h 3.6 z m 19.5,-0.6 c -3.7,0 -6.5,2.4 -8.2,5.4 h -0.2 l -0.5,-4.9 h -3.6 v 26.8 h 4.4 V 553 c 0,-5.4 3.6,-9 7.8,-9 0.9,0 2,0.2 2.9,0.3 l 0.6,-4 c -1,-0.2 -2.2,-0.4 -3.2,-0.4 m 16.4,27.9 c 3.1,0 5.7,-0.6 7.2,-1.6 l -1.4,-3.5 c -1.8,0.8 -3.7,1.3 -5.9,1.3 -5,0 -7.6,-3.6 -7.6,-10 0,-6.7 2.5,-10.1 7.9,-10.1 1.9,0 4.2,0.6 5.8,1.2 l 1.4,-3.6 c -1.6,-0.8 -4.4,-1.5 -7.1,-1.5 -7.2,0 -12.5,4.1 -12.5,14 -0.1,9.5 5,13.8 12.2,13.8 m 16.1,-38.5 -4.4,1.6 v 36.3 h 4.4 v -13.8 c 0,-6.2 1.9,-9.7 7.8,-9.7 4.1,0 6,2.2 6,6.5 v 17.2 h 4.4 V 550 c 0,-6.9 -3.3,-9.8 -9.8,-9.8 -3.5,0 -6.6,1.4 -8.3,4.1 h -0.3 c 0.2,-1.1 0.2,-2.4 0.2,-3.7 z"
     class="st1"
     id="Adventist_Church"
     inkscape:connector-curvature="0"
     style="fill:#ffffff" /><path
     d="m 108.6,505.6 c 0,-5.6 -3.5,-7.9 -9.7,-10.3 -5.8,-2.2 -7.8,-3.6 -7.8,-7.2 0,-3.1 2.3,-5.2 6.7,-5.2 3.1,0 6,0.9 8.5,1.9 l 1.5,-3.8 c -2.7,-1.2 -5.9,-2 -9.9,-2 -6.7,0 -11.4,3.5 -11.4,9.1 0,5.6 3.1,8.4 9.2,10.6 6.5,2.3 8.4,3.9 8.4,7.4 0,3.6 -2.8,5.7 -8,5.7 -3.8,0 -7,-0.8 -8.6,-1.5 l -1.4,3.7 c 2.3,1.1 5.8,1.7 9.8,1.7 7.7,0 12.7,-3.7 12.7,-10.1 m 15.9,-17.7 c -7.1,0 -11.8,5.3 -11.8,14.1 0,8.9 5.3,13.7 12.9,13.7 3.6,0 6.1,-0.6 8.8,-1.8 l -1.2,-3.3 c -2.1,0.8 -4.8,1.3 -7.4,1.3 -5.3,0 -8.4,-3.2 -8.6,-9.3 h 18.4 v -2.7 c -0.1,-7.2 -4.3,-12 -11.1,-12 m -0.1,3.6 c 4.4,0 6.5,3.1 6.5,7.6 h -13.6 c 0.4,-4.7 2.9,-7.6 7.1,-7.6 m 21.3,23.7 h 5 l 10.2,-26.8 h -4.7 l -5.7,15.8 c -0.7,2.2 -1.9,5.4 -2.3,7.1 H 148 c -0.3,-1.6 -1.4,-4.9 -2.2,-7.1 l -5.7,-15.8 h -4.7 z M 174,487.9 c -7.1,0 -11.8,5.3 -11.8,14.1 0,8.9 5.3,13.7 12.9,13.7 3.6,0 6.1,-0.6 8.8,-1.8 l -1.2,-3.3 c -2.1,0.8 -4.8,1.3 -7.4,1.3 -5.3,0 -8.4,-3.2 -8.6,-9.3 h 18.4 v -2.7 c -0.1,-7.2 -4.2,-12 -11.1,-12 m -0.1,3.6 c 4.4,0 6.5,3.1 6.5,7.6 h -13.7 c 0.6,-4.7 3.1,-7.6 7.2,-7.6 m 29.3,-3.6 c -3.4,0 -6.7,1.4 -8.4,4.1 h -0.2 l -0.6,-3.6 h -3.6 v 26.8 h 4.4 v -13.9 c 0,-6.2 1.9,-9.7 7.8,-9.7 4.1,0 6,2.2 6,6.5 v 17.2 h 4.4 v -17.5 c -0.1,-7 -3.4,-9.9 -9.8,-9.9 m 24.1,24.2 c -2.4,0 -4.2,-1.5 -4.2,-4.8 v -15.5 h 7.8 v -3.4 h -7.8 v -6.1 l -4.4,1.6 v 23.5 c 0,6.5 3.6,8.3 7.8,8.3 2,0 4,-0.5 4.9,-1.1 l -1.2,-3.2 c -0.5,0.3 -1.8,0.7 -2.9,0.7 m 12,-34.9 -4.4,1.6 v 36.3 h 4.4 v -13.8 c 0,-6.2 1.9,-9.7 7.8,-9.7 4.1,0 6,2.2 6,6.5 v 17.1 h 4.4 v -17.5 c 0,-6.9 -3.3,-9.8 -9.8,-9.8 -3.5,0 -6.6,1.4 -8.3,4.1 h -0.3 c 0.2,-1.1 0.2,-2.4 0.2,-3.7 z m 23.5,26.6 h 12.1 l -1.5,-3.9 h -12.1 z m 26.1,11.9 c 4.2,0 6.7,-1.8 8.3,-4.1 h 0.2 l 0.6,3.6 h 3.6 v -37.9 l -4.4,1.7 v 9 c 0,1 0.2,3.1 0.3,4 h -0.3 c -1.6,-2.2 -4.1,-4 -8.3,-4 -6.6,0 -11,4.8 -11,13.9 0,9.2 4.4,13.8 11,13.8 m 0.7,-3.7 c -4.8,0 -7.1,-3.7 -7.1,-10.1 0,-6.3 2.3,-10.4 7.1,-10.4 5.9,0 7.8,3.7 7.8,10.4 v 0.8 c -0.2,6.3 -2.2,9.3 -7.8,9.3 m 29.6,-24 c -3.5,0 -6.8,1.1 -9.1,2.3 l 1.4,3.3 c 2.2,-1.1 4.8,-2 7.5,-2 3.5,0 5.6,1.5 5.6,5.9 v 1.6 l -4.5,0.2 c -8.7,0.2 -12.9,3.2 -12.9,8.6 0,5.4 3.6,7.9 8.4,7.9 4.5,0 6.6,-1.4 9,-4.3 h 0.2 l 0.8,3.8 h 3.2 V 497 c 0,-6.3 -3.1,-9 -9.6,-9 m 5.3,14.1 v 2.4 c 0,5.2 -3.4,7.6 -7.9,7.6 -2.9,0 -4.9,-1.4 -4.9,-4.4 0,-3.4 2.2,-5.3 8.8,-5.6 z m 7,-13.7 10.8,26.9 -1.4,3.6 c -1.1,2.9 -1.9,3.9 -4,4.8 l 1.4,3.6 c 3.6,-1.4 5.3,-3.2 7.1,-8.3 L 357,488.5 h -4.8 l -5.4,15.2 c -1,2.8 -1.9,5.7 -2.3,7.4 h -0.2 c -0.4,-2.2 -1.2,-4.6 -2.3,-7.3 l -5.8,-15.2 z"
     class="st1"
     id="Seventh-day"
     inkscape:connector-curvature="0"
     style="fill:#ffffff" /><g
     id="TM_2_"><polygon
       id="polygon78"
       points="404.6,535 404.6,531.1 403.2,531.1 403.2,530.5 406.9,530.5 406.9,531.1 405.5,531.1 405.5,535 "
       class="st1"
       style="fill:#ffffff" /><polygon
       id="polygon80"
       points="411.6,535 411.6,532.4 411.6,531.5 410.3,535 409.5,535 408.2,531.5 408.2,532.3 408.2,535 407.3,535 407.3,530.5 408.6,530.5 409.9,534 411.2,530.5 412.4,530.5 412.4,535 "
       class="st1"
       style="fill:#ffffff" /></g></g></svg>